<svg xmlns="http://www.w3.org/2000/svg" width="760" height="460" viewBox="0 0 760 460">
<rect width="100%" height="100%" fill="white"/>
<style>text{font-family:Inter,Arial,sans-serif;fill:#111827}.axis{stroke:#9ca3af;stroke-width:1}.grid{stroke:#e5e7eb;stroke-width:1}.small{font-size:11px}.tiny{font-size:9px}</style>
<text x="380.0" y="25.0" font-size="17" text-anchor="middle" font-weight="bold">Solver wall time scaling</text>
<line class="axis" x1="85" y1="50" x2="85" y2="350"/>
<line class="axis" x1="85" y1="350" x2="705" y2="350"/>
<line class="grid" x1="85" y1="232.08026779029103" x2="705" y2="232.08026779029103"/>
<text x="77.0" y="236.1" font-size="10" text-anchor="end" font-weight="normal">0.01s</text>
<line class="grid" x1="85" y1="112.93033186813611" x2="705" y2="112.93033186813611"/>
<text x="77.0" y="116.9" font-size="10" text-anchor="end" font-weight="normal">0.1s</text>
<text x="85.0" y="370.0" font-size="10" text-anchor="middle" font-weight="normal">48</text>
<text x="395.0" y="370.0" font-size="10" text-anchor="middle" font-weight="normal">400</text>
<text x="705.0" y="370.0" font-size="10" text-anchor="middle" font-weight="normal">2,000</text>
<polyline fill="none" stroke="#111827" stroke-width="2.5" points="85.0,325.3 395.0,271.9 705.0,162.4"/>
<circle cx="85.0" cy="325.29707942052477" r="4" fill="#111827"/>
<circle cx="395.0" cy="271.9171634179803" r="4" fill="#111827"/>
<circle cx="705.0" cy="162.37242009829828" r="4" fill="#111827"/>
<polyline fill="none" stroke="#7c3aed" stroke-width="2.5" points="85.0,179.4 395.0,150.5 705.0,71.0"/>
<circle cx="85.0" cy="179.3702105272229" r="4" fill="#7c3aed"/>
<circle cx="395.0" cy="150.53958136000855" r="4" fill="#7c3aed"/>
<circle cx="705.0" cy="70.98126223293593" r="4" fill="#7c3aed"/>
<polyline fill="none" stroke="#1d4ed8" stroke-width="2.5" points="85.0,329.0 395.0,260.9 705.0,168.5"/>
<circle cx="85.0" cy="329.018737767064" r="4" fill="#1d4ed8"/>
<circle cx="395.0" cy="260.87826033028955" r="4" fill="#1d4ed8"/>
<circle cx="705.0" cy="168.48160649410937" r="4" fill="#1d4ed8"/>
<rect x="85" y="430" width="12" height="3" fill="#111827"/>
<text x="103.0" y="435.0" font-size="10" text-anchor="start" font-weight="normal">LP</text>
<rect x="210" y="430" width="12" height="3" fill="#7c3aed"/>
<text x="228.0" y="435.0" font-size="10" text-anchor="start" font-weight="normal">RC-FW</text>
<rect x="335" y="430" width="12" height="3" fill="#1d4ed8"/>
<text x="353.0" y="435.0" font-size="10" text-anchor="start" font-weight="normal">Quasi</text>
<text x="395.0" y="402.0" font-size="11" text-anchor="middle" font-weight="normal">Declared retail orders (log-time axis)</text>
</svg>
